<svg xmlns="http://www.w3.org/2000/svg" viewBox="0 0 96 96">
  <defs>
    <linearGradient id="background" x1="14" y1="8" x2="82" y2="88" gradientUnits="userSpaceOnUse">
      <stop stop-color="#697ef8"/>
      <stop offset="1" stop-color="#3f4bb7"/>
    </linearGradient>
  </defs>
  <rect width="96" height="96" rx="24" fill="url(#background)"/>
  <path d="M20 31c0-4.4 3.6-8 8-8h17l7 8h16c4.4 0 8 3.6 8 8v29c0 4.4-3.6 8-8 8H28c-4.4 0-8-3.6-8-8V31Z" fill="#eef2ff"/>
  <path d="M47.9 38a3 3 0 0 1 3 3v13.8l4.6-4.6a3 3 0 1 1 4.2 4.2L50 64.1a3 3 0 0 1-4.2 0L36 54.4a3 3 0 1 1 4.2-4.2l4.7 4.6V41a3 3 0 0 1 3-3Z" fill="#4654c7"/>
</svg>
